<?xml version="1.0" encoding="utf-8"?>
<!-- Generator: Adobe Illustrator 23.0.3, SVG Export Plug-In . SVG Version: 6.00 Build 0)  -->
<svg version="1.1" xmlns="http://www.w3.org/2000/svg" xmlns:xlink="http://www.w3.org/1999/xlink" x="0px" y="0px"
	 viewBox="0 0 544.8 215.6" style="enable-background:new 0 0 544.8 215.6;" xml:space="preserve">
<style type="text/css">
	.st0{fill:#FFFFFF;}
</style>
<g id="Layer_1">
	<g>
		<path class="st0" d="M18.73,95.27l84.41,84.41L57.22,87.83l4.54-1.87l48.3,96.61l48.3-96.59l4.54,1.87L117,179.67l84.41-84.41
			l-91.34-37.61L18.73,95.27z M110.07,52.36l88.89-36.6l-26.89,53.78l-4.54-1.87l21.2-42.4L116.5,55.01l93.56,38.53l-100,100v0
			l-100-100l93.56-38.53L31.41,25.27l21.17,42.34l-4.54,1.87L21.18,15.76L110.07,52.36z"/>
	</g>
	<g>
		<path class="st0" d="M255.61,43.64v24.98h32.88v5.81h-32.88v26.98h-6.72V37.82h43.6v5.81H255.61z"/>
		<path class="st0" d="M349.81,101.41l-14.53-20.44c-1.63,0.18-3.27,0.27-5.09,0.27h-17.08v20.17h-6.72V37.82h23.8
			c16.17,0,25.98,8.18,25.98,21.8c0,9.99-5.27,16.99-14.53,19.98l15.53,21.8H349.81z M349.44,59.62c0-10.17-6.72-15.99-19.44-15.99
			h-16.9v31.88H330C342.72,75.52,349.44,69.61,349.44,59.62z"/>
		<path class="st0" d="M372.06,37.82h6.72v63.58h-6.72V37.82z"/>
		<path class="st0" d="M435.91,83.15c0,10.63-7.72,18.8-23.07,18.8c-9.17,0-17.99-3.18-22.89-8.18l3.18-5.18
			c4.09,4.27,11.45,7.36,19.71,7.36c10.54,0,16.35-4.91,16.35-12.81c0-7.63-5.36-12.63-17.17-12.63h-4.54v-4.81l17.62-22.07h-32.52
			v-5.81h40.88v4.63l-17.99,22.62C429.1,65.8,435.91,72.98,435.91,83.15z"/>
		<path class="st0" d="M450.72,37.82h25.89c20.35,0,34.06,13.08,34.06,31.79s-13.72,31.79-34.06,31.79h-25.89V37.82z M476.24,95.59
			c16.9,0,27.8-10.72,27.8-25.98s-10.9-25.98-27.8-25.98h-18.8v51.96H476.24z"/>
		<path class="st0" d="M243.26,148.61c0-18.62,14.17-32.34,33.34-32.34c9.27,0,17.62,3.09,23.25,9.27l-4.27,4.27
			c-5.18-5.27-11.54-7.54-18.8-7.54c-15.35,0-26.89,11.26-26.89,26.34c0,15.08,11.54,26.34,26.89,26.34c7.27,0,13.63-2.27,18.8-7.63
			l4.27,4.27c-5.63,6.18-13.99,9.36-23.34,9.36C257.43,180.95,243.26,167.24,243.26,148.61z"/>
		<path class="st0" d="M352.44,163.42h-35.43l-7.63,16.99h-6.99l29.07-63.58h6.63l29.07,63.58h-7.08L352.44,163.42z M349.99,157.97
			l-15.26-34.15l-15.26,34.15H349.99z"/>
		<path class="st0" d="M443.73,116.82v63.58h-6.45v-50.87l-24.98,42.78h-3.18l-24.98-42.51v50.6h-6.45v-63.58h5.54l27.61,47.14
			l27.34-47.14H443.73z"/>
		<path class="st0" d="M514.21,138.62c0,13.53-9.81,21.71-25.98,21.71h-17.08v20.07h-6.72v-63.58h23.8
			C504.4,116.82,514.21,125,514.21,138.62z M507.49,138.62c0-10.17-6.72-15.99-19.44-15.99h-16.9v31.79h16.9
			C500.77,154.43,507.49,148.61,507.49,138.62z"/>
	</g>
</g>
<g id="Layer_2">
</g>
</svg>
